<?xml version="1.0" encoding="UTF-8"?>
<svg xmlns="http://www.w3.org/2000/svg" width="700" height="417" viewBox="0 0 700 417" font-family="Helvetica, Arial, sans-serif">
<defs><marker id="ahbe123c" viewBox="0 0 10 10" refX="9" refY="5" markerWidth="8" markerHeight="8" markerUnits="userSpaceOnUse" orient="auto"><path d="M0,0.6 L10,5 L0,9.4 L2.8,5 z" fill="#be123c"/></marker><marker id="ah374151" viewBox="0 0 10 10" refX="9" refY="5" markerWidth="8" markerHeight="8" markerUnits="userSpaceOnUse" orient="auto"><path d="M0,0.6 L10,5 L0,9.4 L2.8,5 z" fill="#374151"/></marker></defs>
<rect width="700" height="417" fill="#ffffff"/>
<path d="M35,46.0 L30,46.0 L30,148.0 L35,148.0" fill="none" stroke="#be123c" stroke-width="1.6"/>
<text x="18" y="101.29" font-size="12" fill="#be123c" text-anchor="middle" font-weight="bold" transform="rotate(-90 18 97.0)">stage 0 · L1–4</text>
<path d="M35,224.0 L30,224.0 L30,326.0 L35,326.0" fill="none" stroke="#be123c" stroke-width="1.6"/>
<text x="18" y="279.29" font-size="12" fill="#be123c" text-anchor="middle" font-weight="bold" transform="rotate(-90 18 275.0)">stage 1 · L5–8</text>
<line x1="40" y1="186.0" x2="682" y2="186.0" stroke="#d1d5db" stroke-width="1" stroke-dasharray="4 4"/>
<rect x="92.0" y="40.0" width="590.0" height="46.0" rx="8" fill="#f9fafb" stroke="#eceef2" stroke-width="1"/>
<text x="82" y="67.20" font-size="12" fill="#646b78" text-anchor="end" font-weight="normal">node 0</text>
<rect x="92.0" y="108.0" width="590.0" height="46.0" rx="8" fill="#f9fafb" stroke="#eceef2" stroke-width="1"/>
<text x="82" y="135.20" font-size="12" fill="#646b78" text-anchor="end" font-weight="normal">node 1</text>
<rect x="92.0" y="218.0" width="590.0" height="46.0" rx="8" fill="#f9fafb" stroke="#eceef2" stroke-width="1"/>
<text x="82" y="245.20" font-size="12" fill="#646b78" text-anchor="end" font-weight="normal">node 2</text>
<rect x="92.0" y="286.0" width="590.0" height="46.0" rx="8" fill="#f9fafb" stroke="#eceef2" stroke-width="1"/>
<text x="82" y="313.20" font-size="12" fill="#646b78" text-anchor="end" font-weight="normal">node 3</text>
<rect x="100.0" y="46.0" width="56.0" height="34.0" rx="6" fill="#f3f4f6" stroke="#d1d5db" stroke-width="1"/>
<text x="128.0" y="67.81" font-size="13" fill="#646b78" text-anchor="middle" font-weight="normal" font-family="Menlo, 'DejaVu Sans Mono', 'Lucida Console', monospace">0</text>
<rect x="174.0" y="46.0" width="56.0" height="34.0" rx="6" fill="#f3f4f6" stroke="#d1d5db" stroke-width="1"/>
<text x="202.0" y="67.81" font-size="13" fill="#646b78" text-anchor="middle" font-weight="normal" font-family="Menlo, 'DejaVu Sans Mono', 'Lucida Console', monospace">1</text>
<rect x="248.0" y="46.0" width="56.0" height="34.0" rx="6" fill="#f3f4f6" stroke="#d1d5db" stroke-width="1"/>
<text x="276.0" y="67.81" font-size="13" fill="#646b78" text-anchor="middle" font-weight="normal" font-family="Menlo, 'DejaVu Sans Mono', 'Lucida Console', monospace">2</text>
<rect x="322.0" y="46.0" width="56.0" height="34.0" rx="6" fill="#f3f4f6" stroke="#d1d5db" stroke-width="1"/>
<text x="350.0" y="67.81" font-size="13" fill="#646b78" text-anchor="middle" font-weight="normal" font-family="Menlo, 'DejaVu Sans Mono', 'Lucida Console', monospace">3</text>
<rect x="396.0" y="46.0" width="56.0" height="34.0" rx="6" fill="#f3f4f6" stroke="#d1d5db" stroke-width="1"/>
<text x="424.0" y="67.81" font-size="13" fill="#646b78" text-anchor="middle" font-weight="normal" font-family="Menlo, 'DejaVu Sans Mono', 'Lucida Console', monospace">4</text>
<rect x="470.0" y="46.0" width="56.0" height="34.0" rx="6" fill="#f3f4f6" stroke="#d1d5db" stroke-width="1"/>
<text x="498.0" y="67.81" font-size="13" fill="#646b78" text-anchor="middle" font-weight="normal" font-family="Menlo, 'DejaVu Sans Mono', 'Lucida Console', monospace">5</text>
<rect x="544.0" y="46.0" width="56.0" height="34.0" rx="6" fill="#f3f4f6" stroke="#d1d5db" stroke-width="1"/>
<text x="572.0" y="67.81" font-size="13" fill="#646b78" text-anchor="middle" font-weight="normal" font-family="Menlo, 'DejaVu Sans Mono', 'Lucida Console', monospace">6</text>
<rect x="618.0" y="46.0" width="56.0" height="34.0" rx="6" fill="#f3f4f6" stroke="#d1d5db" stroke-width="1"/>
<text x="646.0" y="67.81" font-size="13" fill="#646b78" text-anchor="middle" font-weight="normal" font-family="Menlo, 'DejaVu Sans Mono', 'Lucida Console', monospace">7</text>
<rect x="100.0" y="114.0" width="56.0" height="34.0" rx="6" fill="#f3f4f6" stroke="#d1d5db" stroke-width="1"/>
<text x="128.0" y="135.81" font-size="13" fill="#646b78" text-anchor="middle" font-weight="normal" font-family="Menlo, 'DejaVu Sans Mono', 'Lucida Console', monospace">8</text>
<rect x="174.0" y="114.0" width="56.0" height="34.0" rx="6" fill="#f3f4f6" stroke="#d1d5db" stroke-width="1"/>
<text x="202.0" y="135.81" font-size="13" fill="#646b78" text-anchor="middle" font-weight="normal" font-family="Menlo, 'DejaVu Sans Mono', 'Lucida Console', monospace">9</text>
<rect x="248.0" y="114.0" width="56.0" height="34.0" rx="6" fill="#f3f4f6" stroke="#d1d5db" stroke-width="1"/>
<text x="276.0" y="135.81" font-size="13" fill="#646b78" text-anchor="middle" font-weight="normal" font-family="Menlo, 'DejaVu Sans Mono', 'Lucida Console', monospace">10</text>
<rect x="322.0" y="114.0" width="56.0" height="34.0" rx="6" fill="#111827" stroke="#111827" stroke-width="1.2"/>
<text x="350.0" y="135.81" font-size="13" fill="#ffffff" text-anchor="middle" font-weight="bold" font-family="Menlo, 'DejaVu Sans Mono', 'Lucida Console', monospace">11</text>
<rect x="396.0" y="114.0" width="56.0" height="34.0" rx="6" fill="#f3f4f6" stroke="#d1d5db" stroke-width="1"/>
<text x="424.0" y="135.81" font-size="13" fill="#646b78" text-anchor="middle" font-weight="normal" font-family="Menlo, 'DejaVu Sans Mono', 'Lucida Console', monospace">12</text>
<rect x="470.0" y="114.0" width="56.0" height="34.0" rx="6" fill="#f3f4f6" stroke="#d1d5db" stroke-width="1"/>
<text x="498.0" y="135.81" font-size="13" fill="#646b78" text-anchor="middle" font-weight="normal" font-family="Menlo, 'DejaVu Sans Mono', 'Lucida Console', monospace">13</text>
<rect x="544.0" y="114.0" width="56.0" height="34.0" rx="6" fill="#f3f4f6" stroke="#d1d5db" stroke-width="1"/>
<text x="572.0" y="135.81" font-size="13" fill="#646b78" text-anchor="middle" font-weight="normal" font-family="Menlo, 'DejaVu Sans Mono', 'Lucida Console', monospace">14</text>
<rect x="618.0" y="114.0" width="56.0" height="34.0" rx="6" fill="#f3f4f6" stroke="#d1d5db" stroke-width="1"/>
<text x="646.0" y="135.81" font-size="13" fill="#646b78" text-anchor="middle" font-weight="normal" font-family="Menlo, 'DejaVu Sans Mono', 'Lucida Console', monospace">15</text>
<rect x="100.0" y="224.0" width="56.0" height="34.0" rx="6" fill="#f3f4f6" stroke="#d1d5db" stroke-width="1"/>
<text x="128.0" y="245.81" font-size="13" fill="#646b78" text-anchor="middle" font-weight="normal" font-family="Menlo, 'DejaVu Sans Mono', 'Lucida Console', monospace">16</text>
<rect x="174.0" y="224.0" width="56.0" height="34.0" rx="6" fill="#f3f4f6" stroke="#d1d5db" stroke-width="1"/>
<text x="202.0" y="245.81" font-size="13" fill="#646b78" text-anchor="middle" font-weight="normal" font-family="Menlo, 'DejaVu Sans Mono', 'Lucida Console', monospace">17</text>
<rect x="248.0" y="224.0" width="56.0" height="34.0" rx="6" fill="#f3f4f6" stroke="#d1d5db" stroke-width="1"/>
<text x="276.0" y="245.81" font-size="13" fill="#646b78" text-anchor="middle" font-weight="normal" font-family="Menlo, 'DejaVu Sans Mono', 'Lucida Console', monospace">18</text>
<rect x="322.0" y="224.0" width="56.0" height="34.0" rx="6" fill="#f3f4f6" stroke="#d1d5db" stroke-width="1"/>
<text x="350.0" y="245.81" font-size="13" fill="#646b78" text-anchor="middle" font-weight="normal" font-family="Menlo, 'DejaVu Sans Mono', 'Lucida Console', monospace">19</text>
<rect x="396.0" y="224.0" width="56.0" height="34.0" rx="6" fill="#f3f4f6" stroke="#d1d5db" stroke-width="1"/>
<text x="424.0" y="245.81" font-size="13" fill="#646b78" text-anchor="middle" font-weight="normal" font-family="Menlo, 'DejaVu Sans Mono', 'Lucida Console', monospace">20</text>
<rect x="470.0" y="224.0" width="56.0" height="34.0" rx="6" fill="#f3f4f6" stroke="#d1d5db" stroke-width="1"/>
<text x="498.0" y="245.81" font-size="13" fill="#646b78" text-anchor="middle" font-weight="normal" font-family="Menlo, 'DejaVu Sans Mono', 'Lucida Console', monospace">21</text>
<rect x="544.0" y="224.0" width="56.0" height="34.0" rx="6" fill="#f3f4f6" stroke="#d1d5db" stroke-width="1"/>
<text x="572.0" y="245.81" font-size="13" fill="#646b78" text-anchor="middle" font-weight="normal" font-family="Menlo, 'DejaVu Sans Mono', 'Lucida Console', monospace">22</text>
<rect x="618.0" y="224.0" width="56.0" height="34.0" rx="6" fill="#f3f4f6" stroke="#d1d5db" stroke-width="1"/>
<text x="646.0" y="245.81" font-size="13" fill="#646b78" text-anchor="middle" font-weight="normal" font-family="Menlo, 'DejaVu Sans Mono', 'Lucida Console', monospace">23</text>
<rect x="100.0" y="292.0" width="56.0" height="34.0" rx="6" fill="#f3f4f6" stroke="#d1d5db" stroke-width="1"/>
<text x="128.0" y="313.81" font-size="13" fill="#646b78" text-anchor="middle" font-weight="normal" font-family="Menlo, 'DejaVu Sans Mono', 'Lucida Console', monospace">24</text>
<rect x="174.0" y="292.0" width="56.0" height="34.0" rx="6" fill="#f3f4f6" stroke="#d1d5db" stroke-width="1"/>
<text x="202.0" y="313.81" font-size="13" fill="#646b78" text-anchor="middle" font-weight="normal" font-family="Menlo, 'DejaVu Sans Mono', 'Lucida Console', monospace">25</text>
<rect x="248.0" y="292.0" width="56.0" height="34.0" rx="6" fill="#f3f4f6" stroke="#d1d5db" stroke-width="1"/>
<text x="276.0" y="313.81" font-size="13" fill="#646b78" text-anchor="middle" font-weight="normal" font-family="Menlo, 'DejaVu Sans Mono', 'Lucida Console', monospace">26</text>
<rect x="322.0" y="292.0" width="56.0" height="34.0" rx="6" fill="#be123c" stroke="#be123c" stroke-width="1.2"/>
<text x="350.0" y="313.81" font-size="13" fill="#ffffff" text-anchor="middle" font-weight="bold" font-family="Menlo, 'DejaVu Sans Mono', 'Lucida Console', monospace">27</text>
<rect x="396.0" y="292.0" width="56.0" height="34.0" rx="6" fill="#f3f4f6" stroke="#d1d5db" stroke-width="1"/>
<text x="424.0" y="313.81" font-size="13" fill="#646b78" text-anchor="middle" font-weight="normal" font-family="Menlo, 'DejaVu Sans Mono', 'Lucida Console', monospace">28</text>
<rect x="470.0" y="292.0" width="56.0" height="34.0" rx="6" fill="#f3f4f6" stroke="#d1d5db" stroke-width="1"/>
<text x="498.0" y="313.81" font-size="13" fill="#646b78" text-anchor="middle" font-weight="normal" font-family="Menlo, 'DejaVu Sans Mono', 'Lucida Console', monospace">29</text>
<rect x="544.0" y="292.0" width="56.0" height="34.0" rx="6" fill="#f3f4f6" stroke="#d1d5db" stroke-width="1"/>
<text x="572.0" y="313.81" font-size="13" fill="#646b78" text-anchor="middle" font-weight="normal" font-family="Menlo, 'DejaVu Sans Mono', 'Lucida Console', monospace">30</text>
<rect x="618.0" y="292.0" width="56.0" height="34.0" rx="6" fill="#f3f4f6" stroke="#d1d5db" stroke-width="1"/>
<text x="646.0" y="313.81" font-size="13" fill="#646b78" text-anchor="middle" font-weight="normal" font-family="Menlo, 'DejaVu Sans Mono', 'Lucida Console', monospace">31</text>
<path d="M366.0,148.0 C366.0,170.0 387.0,194.0 387.0,216.0 L387.0,266.0 C387.0,276.0 366.0,278.0 366.0,290.0" fill="none" stroke="#ffffff" stroke-width="5.7" stroke-linecap="round" stroke-linejoin="round"/><path d="M366.0,148.0 C366.0,170.0 387.0,194.0 387.0,216.0 L387.0,266.0 C387.0,276.0 366.0,278.0 366.0,290.0" fill="none" stroke="#be123c" stroke-width="2.2" stroke-linecap="round" stroke-linejoin="round" stroke-dasharray="5 3.5" marker-end="url(#ahbe123c)"/>
<text x="397.0" y="190.29" font-size="12" fill="#be123c" text-anchor="start" font-weight="bold" stroke="#ffffff" stroke-width="4" paint-order="stroke" stroke-linejoin="round">PP send (IB)</text>
<rect x="190.0" y="366.0" width="18.0" height="14.0" rx="3" fill="#111827" stroke="#111827" stroke-width="1"/>
<text x="214.956" y="377.29" font-size="12" fill="#374151" text-anchor="start" font-weight="normal">home GPU (L1–4)</text>
<rect x="334.3" y="366.0" width="18.0" height="14.0" rx="3" fill="#be123c" stroke="#be123c" stroke-width="1"/>
<text x="359.32399999999996" y="377.29" font-size="12" fill="#374151" text-anchor="start" font-weight="normal">PP receiver (home for L5–8)</text>
<path d="M169.8,397.0 L195.8,397.0" fill="none" stroke="#374151" stroke-width="1.8" stroke-linecap="round" stroke-linejoin="round" marker-end="url(#ah374151)"/>
<text x="202.80399999999997" y="401.29" font-size="12" fill="#374151" text-anchor="start" font-weight="normal">NVLink</text>
<path d="M263.5,397.0 L289.5,397.0" fill="none" stroke="#374151" stroke-width="1.8" stroke-linecap="round" stroke-linejoin="round" stroke-dasharray="5 3.5" marker-end="url(#ah374151)"/>
<text x="296.47999999999996" y="401.29" font-size="12" fill="#374151" text-anchor="start" font-weight="normal">InfiniBand</text>
<text x="371.84399999999994" y="401.29" font-size="12" fill="#646b78" text-anchor="start" font-weight="normal">arrows follow our token's data</text>
</svg>
